<?xml version="1.0" encoding="UTF-8" standalone="no"?>
<svg
   xmlns:dc="http://purl.org/dc/elements/1.1/"
   xmlns:cc="http://creativecommons.org/ns#"
   xmlns:rdf="http://www.w3.org/1999/02/22-rdf-syntax-ns#"
   xmlns:svg="http://www.w3.org/2000/svg"
   xmlns="http://www.w3.org/2000/svg"
   xmlns:xlink="http://www.w3.org/1999/xlink"
   xmlns:sodipodi="http://sodipodi.sourceforge.net/DTD/sodipodi-0.dtd"
   xmlns:inkscape="http://www.inkscape.org/namespaces/inkscape"
   width="400mm"
   height="200mm"
   viewBox="0 0 400 200"
   version="1.1"
   id="svg3358"
   inkscape:version="1.0.2 (e86c8708, 2021-01-15)"
   sodipodi:docname="clouds.svg">
  <defs
     id="defs3352">
    <linearGradient
       inkscape:collect="always"
       id="linearGradient6489">
      <stop
         style="stop-color:#c6c6c6;stop-opacity:1;"
         offset="0"
         id="stop6485" />
      <stop
         style="stop-color:#c6c6c6;stop-opacity:0;"
         offset="1"
         id="stop6487" />
    </linearGradient>
    <linearGradient
       inkscape:collect="always"
       xlink:href="#linearGradient6489"
       id="linearGradient6491"
       x1="318.16056"
       y1="93.416438"
       x2="400.36579"
       y2="93.416438"
       gradientUnits="userSpaceOnUse"
       gradientTransform="translate(2.1501444,-54.291145)" />
    <linearGradient
       inkscape:collect="always"
       xlink:href="#linearGradient6489"
       id="linearGradient6493"
       x1="283.35525"
       y1="70.655274"
       x2="343.85498"
       y2="70.655274"
       gradientUnits="userSpaceOnUse"
       gradientTransform="translate(2.1501444,-54.291145)" />
    <linearGradient
       inkscape:collect="always"
       xlink:href="#linearGradient6489"
       id="linearGradient6495"
       x1="211.56111"
       y1="96.360352"
       x2="293.81853"
       y2="96.360352"
       gradientUnits="userSpaceOnUse"
       gradientTransform="translate(2.1501444,-54.291145)" />
    <linearGradient
       inkscape:collect="always"
       xlink:href="#linearGradient6489"
       id="linearGradient6497"
       x1="161.33456"
       y1="122.25892"
       x2="221.83429"
       y2="122.25892"
       gradientUnits="userSpaceOnUse"
       gradientTransform="translate(2.1501444,-54.291145)" />
    <linearGradient
       inkscape:collect="always"
       xlink:href="#linearGradient6489"
       id="linearGradient6499"
       x1="126.6304"
       y1="77.54658"
       x2="208.88782"
       y2="77.54658"
       gradientUnits="userSpaceOnUse"
       gradientTransform="translate(2.1501444,-54.291145)" />
    <linearGradient
       inkscape:collect="always"
       xlink:href="#linearGradient6489"
       id="linearGradient6501"
       x1="55.082763"
       y1="129.96889"
       x2="137.51838"
       y2="129.96889"
       gradientUnits="userSpaceOnUse"
       gradientTransform="translate(2.1501444,-54.291145)" />
    <linearGradient
       inkscape:collect="always"
       xlink:href="#linearGradient6489"
       id="linearGradient6503"
       x1="0.073747474"
       y1="124.4087"
       x2="60.573484"
       y2="124.4087"
       gradientUnits="userSpaceOnUse"
       gradientTransform="translate(2.1501444,-54.291145)" />
    <linearGradient
       inkscape:collect="always"
       xlink:href="#linearGradient6489"
       id="linearGradient6505"
       x1="30.57872"
       y1="84.815861"
       x2="112.78395"
       y2="84.815861"
       gradientUnits="userSpaceOnUse"
       gradientTransform="translate(2.1501444,-54.291145)" />
  </defs>
  <sodipodi:namedview
     id="base"
     pagecolor="#ffffff"
     bordercolor="#666666"
     borderopacity="1.0"
     inkscape:pageopacity="0.0"
     inkscape:pageshadow="2"
     inkscape:zoom="0.49221501"
     inkscape:cx="663.62934"
     inkscape:cy="478.0938"
     inkscape:document-units="mm"
     inkscape:current-layer="layer1"
     inkscape:document-rotation="0"
     showgrid="false"
     inkscape:window-width="1440"
     inkscape:window-height="855"
     inkscape:window-x="0"
     inkscape:window-y="23"
     inkscape:window-maximized="0" />
  <metadata
     id="metadata3355">
    <rdf:RDF>
      <cc:Work
         rdf:about="">
        <dc:format>image/svg+xml</dc:format>
        <dc:type
           rdf:resource="http://purl.org/dc/dcmitype/StillImage" />
        <dc:title></dc:title>
      </cc:Work>
    </rdf:RDF>
  </metadata>
  <g
     inkscape:label="Ebene 1"
     inkscape:groupmode="layer"
     id="layer1">
    <path
       d="m 81.969261,7.9348506 c -2.967125,0.177555 -5.660664,0.894355 -8.006379,2.1241014 -2.646424,1.387575 -4.538484,3.281517 -5.665368,5.668666 l -0.197013,0.407729 -0.775632,-0.256473 c -2.783612,-0.933815 -6.084218,-1.262626 -8.850635,-0.88121 -3.158186,0.434028 -5.911631,1.663775 -7.741171,3.465646 -1.551088,1.519099 -2.386187,3.255211 -2.55159,5.280676 -0.05271,0.664189 -0.04432,0.822018 0.148891,1.907088 0.115922,0.651043 0.246906,1.275779 0.294265,1.394149 l 0.08237,0.203861 -0.695464,0.046 c -5.225632,0.309086 -9.541504,1.775572 -12.395135,4.215333 -0.707708,0.60501 -1.808727,1.992586 -2.179253,2.755425 -1.16823,2.413454 -0.888354,4.945279 0.817656,7.398199 2.495049,3.597169 7.92885,6.451234 14.210709,7.457394 3.459969,0.55897 7.274876,0.52609 10.540716,-0.0789 l 0.636537,-0.11838 0.621041,0.34854 c 0.805353,0.46034 2.511016,1.24948 3.485275,1.62432 7.696906,2.93297 16.980308,3.03162 23.809645,0.24332 2.8638,-1.16399 5.21375,-2.88695 6.50857,-4.77431 0.31258,-0.46033 0.68797,-1.085071 0.78816,-1.334965 0.006,-0.0063 0.36843,0.111797 0.812,0.2762 1.31408,0.473485 2.76371,0.822025 4.28858,1.039035 0.964964,0.1381 4.170624,0.11837 5.090684,-0.0329 3.41987,-0.5524 6.12052,-1.893939 7.87622,-3.925977 1.08498,-1.256053 1.68448,-2.505525 1.9234,-4.04435 0.52,-3.32097 -1.29701,-6.951025 -4.75901,-9.515735 -1.64486,-1.223166 -3.48691,-2.150408 -5.47893,-2.775144 -0.47412,-0.151256 -0.57555,-0.203861 -0.55907,-0.295932 0.37117,-1.571704 0.39116,-2.604163 0.086,-4.281091 -0.25076,-1.374422 -0.47365,-2.032038 -1.11044,-3.28151 -1.75087,-3.406461 -5.306124,-6.457811 -9.692694,-8.3057142 -0.61896,-0.263053 -0.99985,-0.407729 -2.14977,-0.808871 -0.93203,-0.3222312 -2.91098,-0.7628392 -4.27333,-0.9535472 -1.799178,-0.24332 -3.143516,-0.295925 -4.939807,-0.190708 z"
       id="path3362"
       style="fill:url(#linearGradient6505);fill-opacity:1;stroke:none;stroke-width:0.00657617" />
    <path
       d="m 38.725067,54.860925 c -1.607786,0.15132 -2.917657,0.48233 -3.939074,0.99777 -0.595826,0.29791 -0.945756,0.53908 -1.3146,0.91266 -0.799165,0.80862 -0.917384,1.75437 -0.321557,2.60083 0.212795,0.30737 0.217524,0.33101 0.08512,0.33101 -0.19388,0 -1.300415,0.24117 -1.848953,0.40195 -1.253127,0.37357 -2.354932,0.9032 -3.333789,1.60305 -0.250627,0.1797 -0.572184,0.35939 -0.751877,0.42559 l -0.312099,0.11349 -0.226982,-0.13713 c -0.349929,-0.21753 -1.257856,-0.62893 -1.726005,-0.78971 -1.546311,-0.52489 -2.983859,-0.73769 -4.91793,-0.73769 -1.276771,0 -1.990817,0.0615 -3.050064,0.26009 -3.494568,0.66203 -5.769111,2.45896 -5.438097,4.29846 0.0662,0.37357 0.3121,0.89847 0.54381,1.17273 0.0993,0.1135 0.170236,0.20807 0.160779,0.21753 -0.0095,0.01 -0.250626,0.052 -0.539081,0.0993 -2.2461711,0.35938 -4.4308671,1.25312 -6.1237701,2.51098 -0.57691,0.43032 -1.565227,1.39972 -1.952985,1.91516 -2.4967976,3.362163 -1.8205824,7.443093 1.702358,10.242533 1.891513,1.50376 4.331564,2.46843 7.1782891,2.83254 0.818079,0.10876 3.083164,0.12295 3.853956,0.0284 1.139635,-0.13713 2.255628,-0.36884 3.144638,-0.65257 l 0.378303,-0.12295 0.449234,0.27427 c 2.085392,1.27205 5.111811,1.91043 7.920707,1.67399 2.955487,-0.25536 5.485384,-1.30041 7.140457,-2.95549 l 0.520166,-0.52016 0.378302,0.12768 c 0.468149,0.15604 1.224754,0.34046 1.844224,0.44923 0.368846,0.0615 0.756606,0.0804 1.773293,0.0804 1.428091,0.005 1.863137,-0.0473 3.021691,-0.34993 2.24617,-0.5911 4.114037,-1.94826 4.899014,-3.56078 0.326288,-0.67148 0.416135,-1.0687 0.420864,-1.85368 0.0047,-0.73296 -0.08512,-1.168 -0.345203,-1.74491 l -0.132406,-0.29792 0.359389,-0.0804 c 0.198606,-0.0426 0.605283,-0.16551 0.912652,-0.26954 1.305146,-0.439773 2.340746,-1.059243 3.163555,-1.896243 l 0.364114,-0.36884 0.326287,0.11349 c 1.130181,0.38303 2.70959,0.54381 3.96272,0.40667 2.525166,-0.28372 4.582185,-1.47538 5.428637,-3.14464 0.245898,-0.48706 0.340474,-0.90319 0.340474,-1.48956 0,-1.11599 -0.373576,-1.92461 -1.305142,-2.81363 -0.463423,-0.43977 -0.926842,-0.76133 -1.551041,-1.07343 l -0.449236,-0.22225 -0.0047,-0.9363 c -0.0047,-0.84645 -0.01893,-0.97886 -0.127678,-1.39026 -0.160775,-0.59583 -0.368843,-1.116 -0.638385,-1.57941 -1.295681,-2.26509 -3.910698,-3.87761 -7.130995,-4.38358 -0.860639,-0.13714 -2.818352,-0.1466 -3.631703,-0.0237 -0.699859,0.10876 -1.494295,0.28845 -2.099578,0.48234 l -0.505978,0.16077 -0.132407,-0.0946 c -0.241169,-0.17023 -1.01196,-0.51544 -1.584142,-0.69986 -1.139638,-0.37357 -2.109035,-0.52016 -3.584415,-0.54381 -0.572183,-0.01 -1.134908,-0.01 -1.253127,0 z"
       id="path3376"
       style="fill:url(#linearGradient6503);fill-opacity:1;stroke:none;stroke-width:0.00472877" />
    <path
       d="m 111.7937,53.087885 c -2.99874,0.17755 -5.81993,0.89435 -8.38463,2.1241 -2.89352,1.38757 -5.122847,3.28152 -6.674817,5.66867 l -0.26962,0.40772 -0.72996,-0.25647 c -2.61733,-0.93381 -5.85938,-1.26262 -8.69371,-0.88121 -3.23548,0.43403 -6.20792,1.66378 -8.35832,3.46565 -1.82161,1.5191 -2.96586,3.25521 -3.49196,5.28067 -0.17098,0.66419 -0.1907,0.82202 -0.1907,1.90709 0,0.65104 0.0197,1.27578 0.046,1.39415 l 0.0461,0.20386 -0.70366,0.046 c -5.28067,0.30909 -9.85769,1.775573 -13.14578,4.215333 -0.81544,0.60501 -2.16356,1.99259 -2.66993,2.75543 -1.59801,2.41345 -1.76899,4.94528 -0.49978,7.3982 1.85448,3.59717 6.78004,6.45123 12.88273,7.45739 3.36042,0.55897 7.18119,0.52609 10.55477,-0.0789 l 0.65761,-0.11838 0.55898,0.34855 c 0.72338,0.46033 2.28851,1.24947 3.19602,1.62431 7.17461,2.93298 16.440447,3.03162 23.766317,0.24332 3.07108,-1.16399 5.72785,-2.88695 7.35875,-4.77431 0.39457,-0.46033 0.88121,-1.08507 1.02588,-1.33496 0.006,-0.006 0.34854,0.11179 0.76283,0.2762 1.22975,0.47348 2.61733,0.82202 4.10355,1.03904 0.94038,0.13809 4.14956,0.11837 5.09653,-0.0329 3.51826,-0.55241 6.45781,-1.89395 8.57534,-3.92598 1.30866,-1.25606 2.13068,-2.50553 2.64362,-4.04435 1.11138,-3.32097 -0.0592,-6.95103 -3.06449,-9.515743 -1.42704,-1.22317 -3.10397,-2.15041 -4.98475,-2.77514 -0.44718,-0.15126 -0.53925,-0.20386 -0.50636,-0.29594 0.65104,-1.5717 0.8549,-2.60416 0.84832,-4.28109 -0.006,-1.37442 -0.11179,-2.03203 -0.52609,-3.28151 -1.14426,-3.40646 -4.15615,-6.45781 -8.21365,-8.30571 -0.57213,-0.26305 -0.92724,-0.40773 -2.00574,-0.80887 -0.87463,-0.32223 -2.77514,-0.76284 -4.10353,-0.95355 -1.75584,-0.24332 -3.09081,-0.29592 -4.90584,-0.19071 z"
       id="path3959"
       style="fill:url(#linearGradient6501);fill-opacity:1;stroke:none;stroke-width:0.00657617" />
    <path
       d="m 163.50801,0.72449062 c 2.95767,0.0534 5.60963,0.65797598 7.8832,1.79052698 2.56502,1.27792 4.34535,3.094259 5.33094,5.436296 l 0.17289,0.399834 0.79113,-0.289195 c 2.84005,-1.051263 6.16137,-1.518651 8.90615,-1.252804 3.13357,0.302092 5.81502,1.417561 7.53826,3.1443652 1.46148,1.4554502 2.19383,3.1581032 2.23906,5.1784222 0.0133,0.662566 -0.004,0.820887 -0.26215,1.915007 -0.1546,0.656473 -0.32272,1.287247 -0.37712,1.407706 l -0.0945,0.207491 0.69299,0.0169 c 5.20918,0.09042 9.43957,1.377374 12.14941,3.699724 0.67205,0.575893 1.6911,1.918562 2.01648,2.666549 1.0254,2.366633 0.59513,4.912415 -1.2571,7.438973 -2.70947,3.704873 -8.31466,6.78911 -14.65852,8.059348 -3.4944,0.704427 -7.30874,0.831354 -10.53985,0.362641 l -0.62975,-0.09181 -0.64195,0.374872 c -0.83297,0.494482 -2.58609,1.355778 -3.58295,1.771769 -7.8738,3.258039 -17.16642,3.745719 -23.83273,1.241094 -2.79575,-1.045029 -5.04427,-2.671051 -6.22754,-4.505826 -0.28537,-0.447643 -0.6238,-1.057201 -0.7092,-1.303118 -0.006,-0.006 -0.37519,0.127332 -0.82868,0.310464 -1.34267,0.52896 -2.81351,0.93854 -4.35182,1.219633 -0.9735,0.178646 -4.17917,0.293212 -5.09059,0.18039 -3.38831,-0.409609 -6.01031,-1.639178 -7.64603,-3.599447 -1.01082,-1.211702 -1.53636,-2.437157 -1.68403,-3.967327 -0.32306,-3.302109 1.71009,-7.011489 5.32558,-9.723506 1.71806,-1.293159 3.61582,-2.298395 5.64564,-3.007141 0.48327,-0.171253 0.58786,-0.228154 0.57685,-0.319616 -0.27802,-1.557537 -0.23673,-2.590069 0.16803,-4.281257 0.33244,-1.386139 0.59444,-2.053673 1.30563,-3.330925 1.95372,-3.4828184 5.69138,-6.6858114 10.18923,-8.7191274 0.6348,-0.289217 1.02442,-0.449979 2.19856,-0.899654 0.9515,-0.361564 2.95732,-0.885473 4.33149,-1.133428 1.81427,-0.31891398 3.16222,-0.42788998 4.95291,-0.39783998 z"
       id="path3961"
       style="fill:url(#linearGradient6499);fill-opacity:1;stroke:none;stroke-width:0.00657208" />
    <path
       d="m 199.98589,83.224408 c -1.60778,-0.15132 -2.91766,-0.48233 -3.93907,-0.99777 -0.59583,-0.29791 -0.94576,-0.53908 -1.3146,-0.91266 -0.79917,-0.80862 -0.91739,-1.75437 -0.32156,-2.60082 0.2128,-0.30738 0.21752,-0.33102 0.0851,-0.33102 -0.19388,0 -1.30041,-0.24117 -1.84895,-0.40195 -1.25313,-0.37357 -2.35493,-0.90319 -3.33379,-1.60305 -0.25063,-0.17969 -0.57219,-0.35939 -0.75188,-0.42559 l -0.3121,-0.11349 -0.22698,0.13713 c -0.34993,0.21753 -1.25786,0.62893 -1.726,0.78971 -1.54632,0.52489 -2.98386,0.73769 -4.91793,0.73769 -1.27678,0 -1.99082,-0.0615 -3.05007,-0.26009 -3.49457,-0.66202 -5.76911,-2.45896 -5.4381,-4.298463 0.0662,-0.37357 0.3121,-0.89846 0.54381,-1.17273 0.0993,-0.11349 0.17024,-0.20807 0.16078,-0.21753 -0.01,-0.01 -0.25062,-0.052 -0.53908,-0.0993 -2.24617,-0.35938 -4.43086,-1.25312 -6.12377,-2.51098 -0.57691,-0.43032 -1.56522,-1.39972 -1.95298,-1.91516 -2.4968,-3.36216 -1.82058,-7.44309 1.70236,-10.24253 1.89151,-1.50376 4.33156,-2.46842 7.17828,-2.83254 0.81808,-0.10876 3.08317,-0.12295 3.85396,-0.0284 1.13964,0.13713 2.25563,0.36885 3.14464,0.65257 l 0.3783,0.12295 0.44924,-0.27427 c 2.08539,-1.27204 5.11181,-1.91043 7.9207,-1.67399 2.95549,0.25536 5.48539,1.30042 7.14046,2.95549 l 0.52017,0.52016 0.3783,-0.12767 c 0.46815,-0.15605 1.22475,-0.34047 1.84422,-0.44924 0.36885,-0.0615 0.75661,-0.0804 1.77329,-0.0804 1.4281,-0.005 1.86314,0.0473 3.0217,0.34994 2.24617,0.59109 4.11403,1.94825 4.89901,3.56077 0.32629,0.67148 0.41613,1.0687 0.42086,1.85368 0.005,0.73296 -0.0851,1.168 -0.3452,1.74491 l -0.13241,0.29792 0.35939,0.0804 c 0.19861,0.0426 0.60529,0.16551 0.91266,0.26954 1.30514,0.43978 2.34074,1.05925 3.16355,1.89624 l 0.36411,0.36884 0.32629,-0.11348 c 1.13018,-0.38304 2.70959,-0.54382 3.96272,-0.40668 2.52517,0.28373 4.58219,1.47538 5.42864,3.14464 0.2459,0.48706 0.34047,0.9032 0.34047,1.48956 0,1.11599 -0.37357,1.92462 -1.30514,2.81363 -0.46342,0.43977 -0.92684,0.76133 -1.55104,1.07343 l -0.44924,0.222253 -0.005,0.9363 c -0.005,0.84645 -0.0189,0.97886 -0.12767,1.39026 -0.16078,0.59583 -0.36885,1.116 -0.63839,1.57942 -1.29568,2.26508 -3.9107,3.8776 -7.13099,4.38358 -0.86064,0.13713 -2.81836,0.14659 -3.63171,0.0237 -0.69986,-0.10877 -1.49429,-0.28846 -2.09958,-0.48234 l -0.50597,-0.16078 -0.13241,0.0946 c -0.24117,0.17023 -1.01196,0.51544 -1.58414,0.69986 -1.13964,0.37357 -2.10904,0.52017 -3.58442,0.54381 -0.57218,0.01 -1.13491,0.01 -1.25312,0 z"
       id="path3965"
       style="fill:url(#linearGradient6497);fill-opacity:1;stroke:none;stroke-width:0.00472877" />
    <path
       d="m 248.43872,19.538254 c 2.95767,0.0534 5.60963,0.657976 7.8832,1.790527 2.56502,1.27792 4.34535,3.094259 5.33094,5.436296 l 0.17289,0.399834 0.79113,-0.289195 c 2.84005,-1.051263 6.16137,-1.518651 8.90615,-1.252804 3.13357,0.302092 5.81502,1.417561 7.53826,3.144366 1.46148,1.45545 2.19383,3.158103 2.23906,5.178422 0.0133,0.662566 -0.004,0.820887 -0.26215,1.915007 -0.1546,0.656473 -0.32272,1.287247 -0.37712,1.407706 l -0.0945,0.207491 0.69299,0.0169 c 5.20918,0.09042 9.43957,1.377374 12.14941,3.699724 0.67205,0.575893 1.6911,1.918562 2.01648,2.666549 1.0254,2.366638 0.59513,4.912418 -1.2571,7.438978 -2.70947,3.70487 -8.31466,6.78911 -14.65852,8.05934 -3.4944,0.70443 -7.30874,0.83136 -10.53985,0.36264 l -0.62975,-0.0918 -0.64195,0.37488 c -0.83297,0.49448 -2.58609,1.35577 -3.58295,1.77177 -7.8738,3.25803 -17.16642,3.74571 -23.83273,1.24109 -2.79575,-1.04503 -5.04427,-2.67105 -6.22754,-4.50583 -0.28537,-0.44764 -0.6238,-1.0572 -0.7092,-1.30311 -0.006,-0.006 -0.37519,0.12733 -0.82868,0.31046 -1.34267,0.52896 -2.81351,0.93854 -4.35182,1.21963 -0.9735,0.17865 -4.17917,0.29321 -5.09059,0.18039 -3.38831,-0.40961 -6.01031,-1.63918 -7.64603,-3.59944 -1.01082,-1.21171 -1.53636,-2.43716 -1.68403,-3.96733 -0.32306,-3.30211 1.71009,-7.011491 5.32558,-9.723508 1.71806,-1.293159 3.61582,-2.298395 5.64564,-3.007141 0.48327,-0.171253 0.58786,-0.228154 0.57685,-0.319616 -0.27802,-1.557537 -0.23673,-2.590069 0.16803,-4.281257 0.33244,-1.386139 0.59444,-2.053673 1.30563,-3.330925 1.95372,-3.482819 5.69138,-6.685812 10.18923,-8.719128 0.6348,-0.289217 1.02442,-0.449979 2.19856,-0.899654 0.9515,-0.361564 2.95732,-0.885473 4.33149,-1.133428 1.81427,-0.318914 3.16222,-0.42789 4.95291,-0.39784 z"
       id="path3967"
       style="fill:url(#linearGradient6495);fill-opacity:1;stroke:none;stroke-width:0.00657208" />
    <path
       d="m 322.00658,1.1073146 c -1.60778,0.151322 -2.91765,0.482334 -3.93907,0.997774 -0.59583,0.297911 -0.94576,0.53908 -1.3146,0.912656 -0.79917,0.808618 -0.91738,1.754375 -0.32156,2.600827 0.2128,0.307373 0.21753,0.331012 0.0851,0.331012 -0.19388,0 -1.30041,0.24117 -1.84895,0.401949 -1.25313,0.373572 -2.35493,0.903198 -3.33379,1.603057 -0.25063,0.179691 -0.57218,0.359385 -0.75188,0.425589 l -0.3121,0.113491 -0.22698,-0.137135 c -0.34993,-0.217525 -1.25785,-0.628927 -1.726,-0.789707 -1.54631,-0.524893 -2.98386,-0.73769 -4.91793,-0.73769 -1.27677,0 -1.99082,0.06148 -3.05007,0.260085 -3.49456,0.662029 -5.76911,2.4589672 -5.43809,4.2984604 0.0662,0.373572 0.3121,0.898469 0.54381,1.172736 0.0993,0.113492 0.17023,0.208068 0.16078,0.217525 -0.01,0.0095 -0.25063,0.05202 -0.53909,0.09931 -2.24617,0.359385 -4.43086,1.253126 -6.12377,2.51098 -0.57691,0.430322 -1.56522,1.399719 -1.95298,1.915159 -2.4968,3.362161 -1.82058,7.443096 1.70236,10.242537 1.89151,1.503753 4.33156,2.468421 7.17829,2.832539 0.81808,0.108758 3.08316,0.122949 3.85395,0.02836 1.13964,-0.137135 2.25563,-0.368847 3.14464,-0.652571 l 0.3783,-0.122949 0.44924,0.274267 c 2.08539,1.272045 5.11181,1.910429 7.9207,1.673989 2.95549,-0.255355 5.48539,-1.300414 7.14046,-2.955488 l 0.52017,-0.520164 0.3783,0.127678 c 0.46815,0.156046 1.22475,0.340469 1.84422,0.449232 0.36885,0.06148 0.75661,0.08039 1.7733,0.08039 1.42809,0.0047 1.86313,-0.04729 3.02169,-0.349932 2.24617,-0.591097 4.11403,-1.948256 4.89901,-3.560771 0.32629,-0.671486 0.41614,-1.068702 0.42087,-1.85368 0.005,-0.732961 -0.0851,-1.168007 -0.34521,-1.744917 l -0.1324,-0.297915 0.35939,-0.08039 c 0.1986,-0.04256 0.60528,-0.165508 0.91265,-0.269542 1.30514,-0.439774 2.34074,-1.059244 3.16355,-1.896239 l 0.36412,-0.368842 0.32628,0.113487 c 1.13018,0.383033 2.70959,0.543813 3.96272,0.406677 2.52517,-0.283728 4.58219,-1.475379 5.42864,-3.14464 0.2459,-0.487063 0.34047,-0.903198 0.34047,-1.489566 0,-1.11599 -0.37357,-1.924612 -1.30514,-2.813623 -0.46342,-0.439775 -0.92684,-0.761334 -1.55104,-1.073435 l -0.44923,-0.22225 -0.005,-0.9363002 c -0.005,-0.8464522 -0.0189,-0.9788592 -0.12768,-1.3902612 -0.16078,-0.595825 -0.36885,-1.115994 -0.63839,-1.579413 -1.29568,-2.265086 -3.9107,-3.877601 -7.13099,-4.383579 -0.86064,-0.137135 -2.81835,-0.146593 -3.63171,-0.02367 -0.69985,0.108763 -1.49429,0.288457 -2.09957,0.482339 l -0.50598,0.160775 -0.13241,-0.09458 c -0.24117,-0.170233 -1.01196,-0.515436 -1.58414,-0.69986 -1.13964,-0.373571 -2.10904,-0.520164 -3.58442,-0.543808 -0.57218,-0.0095 -1.1349,-0.0095 -1.25312,0 z"
       id="path3969"
       style="fill:url(#linearGradient6493);fill-opacity:1;stroke:none;stroke-width:0.00472877" />
    <path
       d="m 369.55107,16.535428 c -2.96713,0.177555 -5.66067,0.894355 -8.00638,2.124101 -2.64643,1.387575 -4.53849,3.281517 -5.66537,5.668666 l -0.19701,0.407729 -0.77564,-0.256473 c -2.78361,-0.933815 -6.08421,-1.262626 -8.85063,-0.88121 -3.15819,0.434028 -5.91163,1.663775 -7.74117,3.465646 -1.55109,1.519099 -2.38619,3.255211 -2.55159,5.280676 -0.0527,0.664189 -0.0443,0.822018 0.14889,1.907088 0.11592,0.651043 0.24691,1.275779 0.29426,1.394149 l 0.0824,0.203861 -0.69546,0.046 c -5.22563,0.309086 -9.5415,1.775572 -12.39513,4.215333 -0.70771,0.60501 -1.80873,1.992586 -2.17926,2.755425 -1.16823,2.413454 -0.88835,4.945276 0.81766,7.398196 2.49505,3.59717 7.92885,6.45123 14.21071,7.45739 3.45997,0.55898 7.27487,0.5261 10.54071,-0.0789 l 0.63654,-0.11837 0.62104,0.34854 c 0.80535,0.46034 2.51102,1.24947 3.48528,1.62432 7.6969,2.93297 16.9803,3.03161 23.80964,0.24332 2.8638,-1.16399 5.21375,-2.88695 6.50857,-4.77431 0.31258,-0.46034 0.68797,-1.08507 0.78816,-1.33497 0.006,-0.006 0.36843,0.1118 0.812,0.2762 1.31408,0.47349 2.76371,0.82203 4.28858,1.03904 0.96496,0.1381 4.17063,0.11837 5.09069,-0.0329 3.41987,-0.5524 6.12052,-1.89394 7.87622,-3.92598 1.08498,-1.25605 1.68448,-2.50552 1.9234,-4.04435 0.52,-3.32097 -1.29701,-6.951025 -4.75901,-9.515735 -1.64486,-1.223166 -3.48691,-2.150408 -5.47893,-2.775144 -0.47412,-0.151256 -0.57555,-0.203861 -0.55907,-0.295932 0.37117,-1.571704 0.39116,-2.604163 0.086,-4.281091 -0.25076,-1.374422 -0.47365,-2.032038 -1.11044,-3.28151 -1.75088,-3.406461 -5.30613,-6.457811 -9.6927,-8.305714 -0.61896,-0.263053 -0.99985,-0.407729 -2.14977,-0.808871 -0.93203,-0.322231 -2.91098,-0.762839 -4.27333,-0.953547 -1.79918,-0.24332 -3.14351,-0.295925 -4.93981,-0.190708 z"
       id="path3971"
       style="fill:url(#linearGradient6491);fill-opacity:1;stroke:none;stroke-width:0.00657617" />
  </g>
</svg>
