<?xml version="1.0" encoding="UTF-8" standalone="no"?>
<svg
   xmlns:dc="http://purl.org/dc/elements/1.1/"
   xmlns:cc="http://creativecommons.org/ns#"
   xmlns:rdf="http://www.w3.org/1999/02/22-rdf-syntax-ns#"
   xmlns:svg="http://www.w3.org/2000/svg"
   xmlns="http://www.w3.org/2000/svg"
   xmlns:sodipodi="http://sodipodi.sourceforge.net/DTD/sodipodi-0.dtd"
   xmlns:inkscape="http://www.inkscape.org/namespaces/inkscape"
   width="400mm"
   height="200mm"
   version="1.1"
   viewBox="0 0 400 200"
   id="svg2002"
   sodipodi:docname="1.svg"
   inkscape:version="1.0.2 (e86c8708, 2021-01-15)">
  <sodipodi:namedview
     pagecolor="#ffffff"
     bordercolor="#666666"
     borderopacity="1"
     objecttolerance="10"
     gridtolerance="10"
     guidetolerance="10"
     inkscape:pageopacity="0"
     inkscape:pageshadow="2"
     inkscape:window-width="1440"
     inkscape:window-height="855"
     id="namedview2004"
     showgrid="false"
     inkscape:zoom="0.5348484"
     inkscape:cx="734.3847"
     inkscape:cy="408.78502"
     inkscape:window-x="0"
     inkscape:window-y="23"
     inkscape:window-maximized="1"
     inkscape:current-layer="svg2002" />
  <defs
     id="defs1996">
    <linearGradient
       id="linearGradient3338"
       x1="-27.905"
       x2="433.16"
       y1="162.76"
       y2="162.76"
       gradientUnits="userSpaceOnUse"
       gradientTransform="translate(-27.207865,17.314096)">
      <stop
         stop-color="#ff7f2a"
         offset="0"
         id="stop1991" />
      <stop
         stop-color="#ff7f2a"
         stop-opacity="0"
         offset="1"
         id="stop1993" />
    </linearGradient>
  </defs>
  <metadata
     id="metadata1998">
    <rdf:RDF>
      <cc:Work
         rdf:about="">
        <dc:format>image/svg+xml</dc:format>
        <dc:type
           rdf:resource="http://purl.org/dc/dcmitype/StillImage" />
        <dc:title />
      </cc:Work>
    </rdf:RDF>
  </metadata>
  <path
     style="fill:#ff7f2a;stroke-width:0.264583"
     d="m -35.122881,90.033299 c 1.768727,0.366604 3.681873,-0.439926 5.441573,0 1.07313,0.268282 1.899323,1.199049 2.968131,1.484066 5.308012,1.415471 10.919876,0.689107 16.32472,0.989378 5.1256753,0.284757 10.27796726,1.135856 15.3353422,1.978752 1.645025,0.274172 6.1324298,1.342121 7.9150148,1.978751 1.182651,0.42238 2.249408,1.16049 3.462819,1.48407 2.253245,0.600859 4.63894,0.53204 6.925637,0.989379 3.129861,0.62597 4.834373,1.247085 7.915017,1.484055 10.915308,0.83964 22.442394,-2.562944 33.144126,0.49469 6.167106,1.76203 10.769196,5.74272 15.335346,9.89377 12.68044,11.52767 2.05588,1.72134 14.345958,11.37784 0.28993,0.2278 0.23397,0.72865 0.49469,0.98937 3.46282,3.29792 6.573067,7.01103 10.388457,9.89377 10.40368,7.86056 22.96831,9.60113 33.63881,16.81941 8.90253,6.02229 16.84422,13.07687 23.74505,21.2716 3.31828,3.94046 7.14289,7.51697 9.89377,11.87253 1.28207,2.02995 1.31917,4.61709 1.97875,6.92563 1.97876,3.46282 3.72395,7.06999 5.93626,10.38846 0.77614,1.1642 2.04676,1.91513 2.96813,2.96813 4.1717,4.76765 8.24617,9.64614 11.87253,14.84066 2.70458,3.87412 4.62294,8.24153 6.92564,12.36721 1.70961,3.06305 7.91501,13.09176 7.91501,17.31409 0,3.44314 0.37003,9.05006 -2.96813,9.89377 -38.62175,9.76154 -149.4987,-15.71557 -159.28968,-17.31409 -25.577342,-4.1759 -51.0765957,-8.82795 -76.67671,-12.8619 -8.98064,-1.41513 -3.986046,4.76376 -5.441573,-10.88315 -0.983316,-10.57065 -2.744719,-21.06809 -3.462819,-31.66006 -0.673199,-9.92969 -0.833534,-29.88435 0,-41.55383 1.311274,-18.35784 0.230392,-8.62141 3.462819,-27.20787 1.61569,-9.29021 3.255268,-17.468585 -0.494688,-26.218481 z"
     id="path2006" />
</svg>
