<?xml version="1.0" encoding="UTF-8" standalone="no"?>
<svg
   xmlns:dc="http://purl.org/dc/elements/1.1/"
   xmlns:cc="http://creativecommons.org/ns#"
   xmlns:rdf="http://www.w3.org/1999/02/22-rdf-syntax-ns#"
   xmlns:svg="http://www.w3.org/2000/svg"
   xmlns="http://www.w3.org/2000/svg"
   xmlns:sodipodi="http://sodipodi.sourceforge.net/DTD/sodipodi-0.dtd"
   xmlns:inkscape="http://www.inkscape.org/namespaces/inkscape"
   width="400mm"
   height="200mm"
   viewBox="0 0 400 200"
   version="1.1"
   id="svg1247"
   inkscape:version="1.0.2 (e86c8708, 2021-01-15)"
   sodipodi:docname="4.svg">
  <defs
     id="defs1241" />
  <sodipodi:namedview
     id="base"
     pagecolor="#ffffff"
     bordercolor="#666666"
     borderopacity="1.0"
     inkscape:pageopacity="0.0"
     inkscape:pageshadow="2"
     inkscape:zoom="2.5318394"
     inkscape:cx="294.64129"
     inkscape:cy="558.85475"
     inkscape:document-units="mm"
     inkscape:current-layer="layer1"
     inkscape:document-rotation="0"
     showgrid="false"
     inkscape:window-width="1440"
     inkscape:window-height="855"
     inkscape:window-x="0"
     inkscape:window-y="23"
     inkscape:window-maximized="1" />
  <metadata
     id="metadata1244">
    <rdf:RDF>
      <cc:Work
         rdf:about="">
        <dc:format>image/svg+xml</dc:format>
        <dc:type
           rdf:resource="http://purl.org/dc/dcmitype/StillImage" />
        <dc:title></dc:title>
      </cc:Work>
    </rdf:RDF>
  </metadata>
  <g
     inkscape:label="Ebene 1"
     inkscape:groupmode="layer"
     id="layer1">
    <path
       style="fill:#aa0000;stroke-width:0.264583"
       d="m 30.118253,83.482228 c 2.103234,0.639228 14.389145,14.40464 15.503713,15.51921 0.288398,0.2884 -0.244714,0.89729 0,1.223572 2.254208,3.00561 3.09234,4.39945 4.282494,8.56498 0.250087,0.8753 -0.164343,2.23721 0,3.05892 0.291158,1.45579 0.957992,2.82183 1.22357,4.28251 0.182399,1.00319 -0.524602,2.18458 0,3.05892 0.524601,0.87432 1.223569,1.63142 1.835354,2.44713 0.611785,1.01964 1.245397,2.0265 1.835354,3.05892 0.319949,0.55991 0.155787,1.37936 0.611785,1.83536 0.519917,0.51992 1.315437,0.70365 1.835354,1.22357 0.519918,0.51991 0.703653,1.31543 1.22357,1.83535 2.154433,2.15443 7.186575,0.3021 9.788556,5.50606 0.3648,0.7296 -0.115358,1.63963 0,2.44714 0.410382,2.87267 0.273021,8.9227 3.058925,11.01213 0.515903,0.38693 1.2885,0.27 1.835354,0.61179 1.98634,1.24146 3.081636,2.63491 4.894278,3.6707 3.709255,2.11958 2.239806,0.26964 5.506064,2.44714 1.513895,1.00927 2.854732,2.5285 4.282493,3.67071 3.42973,2.74378 7.248792,4.80165 10.400342,7.9532 2.137471,2.13747 4.631121,5.6485 5.506071,8.56499 0.69663,2.32212 1.11718,5.1869 1.83535,7.34142 0.19346,0.58039 -0.4326,1.40276 0,1.83535 0.1442,0.1442 0.56232,-0.19784 0.61179,0 0.66449,2.65799 -0.38801,5.84894 0,8.56499 0.12612,0.8829 2.44378,3.65982 2.44713,3.67071 2.98026,9.68582 -0.29439,25.00959 -1.83535,34.87173 -2.57467,16.47789 -0.60043,4.62087 -3.67071,16.51819 -2.37465,9.20177 -3.731163,23.45981 -15.906409,25.08318 -8.026974,1.07026 -10.715212,-14.84027 -17.741757,-18.35354 -2.553586,-1.2768 -5.711158,-0.0815 -8.564988,0 -4.292868,0.12265 -27.123202,2.94509 -31.201024,0 -5.340259,-3.85686 -2.519296,-17.02567 -1.835354,-20.1889 2.548667,-11.78759 4.894278,-5.8225 4.894278,-17.12998 0,-12.05273 -0.487126,-0.76185 -4.282494,-5.50606 -3.605469,-4.50684 -7.093271,-9.30046 -9.176772,-14.68283 -3.98004,-10.28178 -9.818149,-33.28161 -3.670709,-45.88386 4.094215,-8.39315 10.850649,-15.34364 14.682836,-23.85961 2.889811,-6.42181 -2.015725,-10.04887 -3.670709,-14.68284 -2.124552,-5.94873 3.645571,-6.55366 4.282494,-11.01211 0.173038,-1.21128 -13.37882,-1.26284 -14.557538,-1.59106 C -6.7488504,94.028337 29.30254,84.094016 30.118253,83.482228 Z"
       id="path1303"
       sodipodi:nodetypes="cscsssscssssssssssssssscscsssscssssssssssc" />
    <rect
       style="fill:#aa0000;stroke-width:0.264583"
       id="rect1305"
       width="92.991287"
       height="87.485229"
       x="-58.416645"
       y="89.721176" />
    <path
       id="path12"
       d="m 60.231345,131.10894 c -0.0104,-0.0241 -0.01634,-0.16681 -0.0132,-0.31714 0.0055,-0.26513 0.0044,-0.27159 -0.03909,-0.21527 -0.06079,0.0788 -0.07693,0.0732 -0.07693,-0.0269 v -0.0849 l -0.11239,0.10205 c -0.123027,0.11175 -0.213443,0.13595 -0.18935,0.0506 0.05255,-0.18597 0.07675,-0.17272 -0.179599,-0.0984 -0.0481,0.0139 -0.08098,0.007 -0.09289,-0.0211 -0.01454,-0.0337 -0.03678,-0.0341 -0.105262,-0.002 -0.14164,0.067 -0.149716,0.0233 -0.02077,-0.11225 0.118881,-0.12499 0.16195,-0.20766 0.137597,-0.2641 -0.0068,-0.0157 -0.06714,0.0242 -0.134121,0.0888 -0.131846,0.12708 -0.228346,0.15662 -0.203035,0.0621 0.01086,-0.0406 0.0046,-0.0496 -0.0236,-0.0342 -0.02112,0.0116 -0.06599,0.0311 -0.09972,0.0431 -0.05389,0.0193 -0.0597,0.0131 -0.04789,-0.0515 0.01627,-0.0891 0.02255,-0.0888 -0.10512,-0.006 -0.109879,0.0714 -0.273622,0.0945 -0.247941,0.0351 0.0084,-0.0196 -0.01219,-0.0343 -0.04787,-0.0343 -0.0862,0 -0.05428,-0.0608 0.07489,-0.14262 0.111714,-0.0708 0.149046,-0.15413 0.04322,-0.0965 -0.07964,0.0433 -0.177949,0.0429 -0.177949,-7.7e-4 0,-0.0189 -0.03168,-0.0343 -0.07039,-0.0343 -0.123107,0 -0.100985,-0.0574 0.05291,-0.13724 0.274828,-0.14262 0.855188,-0.59073 0.855188,-0.66031 0,-0.0152 -0.02089,-0.0116 -0.04642,0.008 -0.02886,0.0221 -0.05173,0.0233 -0.06046,0.003 -0.0085,-0.0197 -0.05287,-0.0129 -0.112166,0.017 -0.120769,0.061 -0.116042,0.0613 -0.116042,-0.006 0,-0.0389 -0.01231,-0.0479 -0.04189,-0.0307 -0.138276,0.0805 -0.178355,0.0839 -0.190713,0.0161 -0.0091,-0.0499 -0.02603,-0.0619 -0.0667,-0.0473 -0.02997,0.0111 -0.06149,0.003 -0.07005,-0.0165 -0.0089,-0.0206 0.01316,-0.0457 0.05124,-0.0585 0.03674,-0.0124 0.146481,-0.0692 0.24387,-0.1263 0.1575,-0.0923 0.172387,-0.1088 0.134682,-0.14825 -0.03908,-0.0409 -0.03737,-0.0462 0.02185,-0.0675 0.0947,-0.0341 0.393993,-0.32693 0.504095,-0.49332 l 0.09574,-0.14468 -0.08965,0.0527 c -0.0909,0.0535 -0.28133,0.0639 -0.28133,0.0154 0,-0.0146 0.04308,-0.0673 0.09574,-0.11725 0.136725,-0.12959 0.124383,-0.19492 -0.01795,-0.095 -0.117879,0.0827 -0.211058,0.10693 -0.185714,0.0482 0.009,-0.0209 -0.01552,-0.0265 -0.06441,-0.0147 -0.07486,0.0181 -0.07656,0.0162 -0.03252,-0.0348 0.05473,-0.0635 0.02654,-0.0689 -0.0806,-0.0154 -0.05088,0.0254 -0.08526,0.027 -0.100854,0.004 -0.0156,-0.0223 0.06457,-0.0889 0.235173,-0.1952 0.272433,-0.16977 0.438347,-0.30672 0.438347,-0.36183 0,-0.0183 -0.03188,-0.0238 -0.0718,-0.0124 -0.102506,0.0294 -0.08916,-0.0349 0.02218,-0.10681 0.05169,-0.0334 0.123714,-0.10515 0.160051,-0.15947 l 0.06607,-0.0987 -0.08226,-1.4e-4 -0.08226,-1.3e-4 0.0718,-0.0844 0.0718,-0.0844 -0.07321,0.0382 c -0.09808,0.0511 -0.259196,0.009 -0.240032,-0.0621 0.01007,-0.0376 -8.68e-4,-0.0501 -0.03988,-0.0456 -0.152156,0.0176 -0.142663,-0.0505 0.01177,-0.0845 0.05611,-0.0124 0.145097,-0.0514 0.197753,-0.0868 l 0.09574,-0.0643 -0.137622,0.0124 c -0.07569,0.007 -0.137623,-1.4e-4 -0.137623,-0.0155 0,-0.0154 0.0716,-0.0878 0.159102,-0.16096 0.08751,-0.0732 0.202789,-0.18854 0.256186,-0.25631 l 0.09708,-0.12323 -0.124547,0.0111 c -0.09423,0.008 -0.124547,-9.8e-4 -0.124547,-0.0373 0,-0.0263 -0.02423,-0.0533 -0.05385,-0.0598 -0.0438,-0.01 -0.03177,-0.0263 0.0645,-0.0891 0.132142,-0.0861 0.276562,-0.23325 0.276562,-0.28169 0,-0.0191 -0.02383,-0.0187 -0.0601,10e-4 -0.06027,0.0328 -0.275063,0.009 -0.274895,-0.0305 4.8e-5,-0.0116 0.04582,-0.0484 0.101721,-0.0818 0.0559,-0.0334 0.128558,-0.0909 0.161467,-0.12778 l 0.05984,-0.067 -0.07779,-7.6e-4 c -0.04278,-4.2e-4 -0.07779,-0.0162 -0.07779,-0.035 0,-0.0189 0.01288,-0.0343 0.02863,-0.0343 0.03398,0 0.210712,-0.17067 0.210712,-0.20349 0,-0.0125 -0.03734,-0.0228 -0.08297,-0.0228 -0.08476,0 -0.143245,-0.0457 -0.0921,-0.072 0.0156,-0.008 0.07484,-0.0632 0.131639,-0.1228 l 0.103272,-0.10824 -0.06614,-0.0183 -0.06614,-0.0182 0.08261,-0.0941 c 0.04544,-0.0517 0.08251,-0.12114 0.08237,-0.15425 -5.07e-4,-0.12542 0.0695,-0.57215 0.08195,-0.52302 0.0134,0.0529 0.04117,0.30136 0.04866,0.43538 0.0023,0.0415 0.01768,0.0948 0.03413,0.11828 0.01646,0.0235 0.02992,0.061 0.02992,0.0832 0,0.0222 0.02423,0.0646 0.05385,0.0942 0.05152,0.0515 0.05178,0.0541 0.006,0.0597 -0.02633,0.003 -0.05864,0.003 -0.0718,0.001 -0.01316,-0.002 -0.003,0.0188 0.02252,0.0473 0.02555,0.0285 0.03363,0.052 0.01795,0.052 -0.05673,0 -0.02632,0.0666 0.08071,0.17663 0.09124,0.0939 0.102071,0.11605 0.06582,0.13496 -0.02387,0.0125 -0.05147,0.0159 -0.06135,0.008 -0.0099,-0.008 -0.01795,-0.001 -0.01795,0.0157 0,0.0168 0.05005,0.07 0.11122,0.11815 l 0.11122,0.0876 -0.100477,0.0243 c -0.05915,0.0143 -0.0969,0.0406 -0.09177,0.0638 0.0048,0.0218 0.07195,0.0935 0.149248,0.15949 0.105098,0.0897 0.128865,0.12305 0.09424,0.13224 -0.02547,0.007 -0.05932,0.0274 -0.07524,0.0459 -0.01591,0.0185 -0.06264,0.023 -0.103828,0.01 -0.06927,-0.0218 -0.07298,-0.0185 -0.04939,0.0447 0.02572,0.0689 0.138249,0.21653 0.213336,0.28 0.03362,0.0284 0.03491,0.0397 0.0075,0.0656 -0.03862,0.0364 -0.02197,0.0513 0.194708,0.17418 0.165338,0.0938 0.177992,0.15017 0.02992,0.13331 -0.05924,-0.007 -0.107704,-5.9e-4 -0.107704,0.0137 0,0.0143 0.01077,0.026 0.02393,0.026 0.01316,0 0.02393,0.0155 0.02393,0.0343 0,0.0189 -0.02629,0.0343 -0.05842,0.0343 -0.03213,0 -0.06562,0.0167 -0.07441,0.037 -0.0093,0.0215 -0.04256,0.0275 -0.0792,0.0144 l -0.06321,-0.0227 0.05984,0.093 c 0.03291,0.0512 0.11192,0.12804 0.175578,0.17084 0.09473,0.0637 0.108534,0.0836 0.07604,0.10969 -0.03194,0.0256 -0.01243,0.0489 0.09967,0.11883 0.07665,0.0479 0.158902,0.0966 0.182774,0.10847 0.07586,0.0374 0.01988,0.0854 -0.09242,0.0793 -0.07001,-0.003 -0.115515,0.0111 -0.128711,0.0414 -0.01301,0.0302 -0.04741,0.0417 -0.09482,0.0316 -0.07221,-0.0152 -0.07317,-0.0137 -0.03257,0.0506 0.05918,0.0938 0.228343,0.21022 0.43077,0.29643 0.09544,0.0407 0.173524,0.088 0.173524,0.10515 0,0.0171 -0.0727,0.0359 -0.161557,0.0417 -0.159621,0.01 -0.160696,0.0111 -0.08975,0.0596 l 0.0718,0.0492 -0.06794,0.0131 c -0.06364,0.0123 -0.06515,0.0162 -0.02393,0.061 0.0391,0.0427 0.02723,0.0475 -0.106426,0.0443 -0.08274,-0.002 -0.15631,0.004 -0.163496,0.015 -0.02829,0.0406 0.04365,0.15977 0.16735,0.27738 0.148726,0.14139 0.524381,0.41311 0.613297,0.44362 0.03291,0.0113 0.08047,0.0421 0.105684,0.0686 0.04295,0.045 0.0403,0.0495 -0.04189,0.0716 -0.04825,0.0129 -0.08773,0.0366 -0.08773,0.0526 0,0.0711 -0.08814,0.065 -0.209312,-0.0145 -0.162471,-0.10659 -0.169035,-0.10681 -0.08522,-0.003 0.08797,0.10847 0.05763,0.14417 -0.08649,0.10194 -0.09889,-0.029 -0.114484,-0.0266 -0.103072,0.016 0.01109,0.0413 -0.0072,0.0467 -0.104264,0.0304 -0.113414,-0.0191 -0.107783,-0.0129 0.154357,0.16895 0.152653,0.10593 0.371397,0.22486 0.498378,0.27099 0.124472,0.0452 0.237931,0.0925 0.252132,0.10504 0.0369,0.0326 -0.049,0.11524 -0.119885,0.11524 -0.03737,0 -0.06188,0.024 -0.07002,0.0685 -0.01536,0.0841 -0.09481,0.0894 -0.260426,0.0175 -0.142142,-0.0618 -0.259098,-0.0683 -0.235324,-0.0133 0.02231,0.0517 0.277149,0.21393 0.443799,0.28251 0.24694,0.10161 0.254722,0.26238 0.0098,0.20193 -0.09501,-0.0234 -0.127573,-0.0226 -0.109759,0.003 0.03887,0.0557 0.03011,0.0976 -0.01656,0.0793 -0.139735,-0.0549 -0.221393,-0.0583 -0.221393,-0.009 0,0.0977 -0.09217,0.0939 -0.27592,-0.0115 -0.100347,-0.0576 -0.187021,-0.1046 -0.192608,-0.1046 -0.03057,0 -0.0019,0.0943 0.05416,0.1781 0.05128,0.0766 0.05613,0.0962 0.02393,0.0962 -0.04721,0 -0.05203,0.0382 -0.01206,0.0954 0.04842,0.0693 0.0049,0.0825 -0.08849,0.0265 -0.111084,-0.0665 -0.131303,-0.0668 -0.131303,-0.002 0,0.0741 -0.05995,0.0636 -0.196191,-0.0345 -0.118759,-0.0855 -0.11944,-0.0855 -0.132388,-0.0146 -0.01,0.0547 -0.0259,0.0667 -0.06862,0.0513 -0.05444,-0.0196 -0.05575,-0.014 -0.06256,0.26313 -0.0068,0.27802 -0.0081,0.28332 -0.07051,0.29367 -0.03496,0.006 -0.07206,-0.009 -0.08246,-0.0333 z"
       style="fill:#aa0000;stroke-width:0.0286442" />
    <path
       id="path1315"
       d="m 63.225256,132.34503 c -0.0104,-0.0218 -0.01634,-0.15086 -0.0132,-0.28682 0.0055,-0.23979 0.0044,-0.24563 -0.03909,-0.19469 -0.06079,0.0713 -0.07693,0.0662 -0.07693,-0.0243 v -0.0768 l -0.11239,0.0923 c -0.123027,0.10106 -0.213443,0.12295 -0.18935,0.0458 0.05255,-0.1682 0.07675,-0.15621 -0.179599,-0.089 -0.0481,0.0126 -0.08098,0.006 -0.09289,-0.0191 -0.01454,-0.0305 -0.03678,-0.0308 -0.105262,-0.002 -0.14164,0.0606 -0.149716,0.0211 -0.02077,-0.10152 0.118881,-0.11304 0.16195,-0.18781 0.137597,-0.23885 -0.0068,-0.0142 -0.06714,0.0219 -0.134121,0.0803 -0.131846,0.11493 -0.228346,0.14165 -0.203035,0.0562 0.01086,-0.0367 0.0046,-0.0449 -0.0236,-0.0309 -0.02112,0.0105 -0.06599,0.0281 -0.09972,0.039 -0.05389,0.0175 -0.0597,0.0119 -0.04789,-0.0466 0.01627,-0.0806 0.02255,-0.0803 -0.10512,-0.005 -0.109879,0.0646 -0.273622,0.0855 -0.247941,0.0317 0.0084,-0.0177 -0.01219,-0.031 -0.04787,-0.031 -0.0862,0 -0.05428,-0.055 0.07489,-0.12898 0.111714,-0.064 0.149046,-0.1394 0.04322,-0.0873 -0.07964,0.0392 -0.177949,0.0388 -0.177949,-7e-4 0,-0.0171 -0.03168,-0.031 -0.07039,-0.031 -0.123107,0 -0.100985,-0.0519 0.05291,-0.12412 0.274828,-0.12899 0.855188,-0.53426 0.855188,-0.59719 0,-0.0137 -0.02089,-0.0105 -0.04642,0.007 -0.02886,0.02 -0.05173,0.0211 -0.06046,0.003 -0.0085,-0.0178 -0.05287,-0.0117 -0.112166,0.0154 -0.120769,0.0552 -0.116042,0.0554 -0.116042,-0.005 0,-0.0352 -0.01231,-0.0433 -0.04189,-0.0278 -0.138276,0.0728 -0.178355,0.0759 -0.190713,0.0146 -0.0091,-0.0451 -0.02603,-0.056 -0.0667,-0.0428 -0.02997,0.01 -0.06149,0.003 -0.07005,-0.0149 -0.0089,-0.0186 0.01316,-0.0413 0.05124,-0.0529 0.03674,-0.0112 0.146481,-0.0626 0.24387,-0.11423 0.1575,-0.0835 0.172387,-0.0984 0.134682,-0.13408 -0.03908,-0.037 -0.03737,-0.0418 0.02185,-0.061 0.0947,-0.0308 0.393993,-0.29568 0.504095,-0.44616 l 0.09574,-0.13085 -0.08965,0.0477 c -0.0909,0.0484 -0.28133,0.0578 -0.28133,0.0139 0,-0.0132 0.04308,-0.0609 0.09574,-0.10604 0.136725,-0.11721 0.124383,-0.17629 -0.01795,-0.0859 -0.117879,0.0748 -0.211058,0.0967 -0.185714,0.0436 0.009,-0.0189 -0.01552,-0.024 -0.06441,-0.0133 -0.07486,0.0164 -0.07656,0.0147 -0.03252,-0.0315 0.05473,-0.0574 0.02654,-0.0623 -0.0806,-0.0139 -0.05088,0.023 -0.08526,0.0244 -0.100854,0.004 -0.0156,-0.0202 0.06457,-0.0804 0.235173,-0.17654 0.272433,-0.15354 0.438347,-0.2774 0.438347,-0.32724 0,-0.0166 -0.03188,-0.0215 -0.0718,-0.0112 -0.102506,0.0266 -0.08916,-0.0316 0.02218,-0.0966 0.05169,-0.0302 0.123714,-0.0951 0.160051,-0.14422 l 0.06607,-0.0893 -0.08226,-1.2e-4 -0.08226,-1.2e-4 0.0718,-0.0763 0.0718,-0.0763 -0.07321,0.0345 c -0.09808,0.0462 -0.259196,0.008 -0.240032,-0.0562 0.01007,-0.034 -8.68e-4,-0.0453 -0.03988,-0.0412 -0.152156,0.0159 -0.142663,-0.0457 0.01177,-0.0764 0.05611,-0.0112 0.145097,-0.0465 0.197753,-0.0785 l 0.09574,-0.0582 -0.137622,0.0112 c -0.07569,0.006 -0.137623,-1.3e-4 -0.137623,-0.014 0,-0.0139 0.0716,-0.0794 0.159102,-0.14558 0.08751,-0.0662 0.202789,-0.17051 0.256186,-0.2318 l 0.09708,-0.11145 -0.124547,0.01 c -0.09423,0.007 -0.124547,-8.9e-4 -0.124547,-0.0337 0,-0.0238 -0.02423,-0.0482 -0.05385,-0.0541 -0.0438,-0.009 -0.03177,-0.0238 0.0645,-0.0806 0.132142,-0.0779 0.276562,-0.21095 0.276562,-0.25476 0,-0.0173 -0.02383,-0.0169 -0.0601,9.4e-4 -0.06027,0.0297 -0.275063,0.008 -0.274895,-0.0276 4.8e-5,-0.0105 0.04582,-0.0438 0.101721,-0.074 0.0559,-0.0302 0.128558,-0.0822 0.161467,-0.11557 l 0.05984,-0.0606 -0.07779,-6.9e-4 c -0.04278,-3.8e-4 -0.07779,-0.0147 -0.07779,-0.0317 0,-0.0171 0.01288,-0.031 0.02863,-0.031 0.03398,0 0.210712,-0.15436 0.210712,-0.18404 0,-0.0113 -0.03734,-0.0206 -0.08297,-0.0206 -0.08476,0 -0.143245,-0.0413 -0.0921,-0.0651 0.0156,-0.007 0.07484,-0.0572 0.131639,-0.11106 l 0.103272,-0.0979 -0.06614,-0.0165 -0.06614,-0.0165 0.08261,-0.0851 c 0.04544,-0.0468 0.08251,-0.10956 0.08237,-0.13951 -5.07e-4,-0.11343 0.0695,-0.51745 0.08195,-0.47302 0.0134,0.0478 0.04117,0.27255 0.04866,0.39376 0.0023,0.0375 0.01768,0.0857 0.03413,0.10697 0.01646,0.0213 0.02992,0.0552 0.02992,0.0753 0,0.0201 0.02423,0.0584 0.05385,0.0852 0.05152,0.0466 0.05178,0.0489 0.006,0.054 -0.02633,0.003 -0.05864,0.003 -0.0718,0.001 -0.01316,-0.002 -0.003,0.017 0.02252,0.0428 0.02555,0.0258 0.03363,0.047 0.01795,0.047 -0.05673,0 -0.02632,0.0602 0.08071,0.15975 0.09124,0.0849 0.102071,0.10496 0.06582,0.12206 -0.02387,0.0113 -0.05147,0.0144 -0.06135,0.007 -0.0099,-0.007 -0.01795,-0.001 -0.01795,0.0142 0,0.0152 0.05005,0.0633 0.11122,0.10685 l 0.11122,0.0792 -0.100477,0.022 c -0.05915,0.0129 -0.0969,0.0367 -0.09177,0.0577 0.0048,0.0197 0.07195,0.0846 0.149248,0.14424 0.105098,0.0811 0.128865,0.11129 0.09424,0.1196 -0.02547,0.006 -0.05932,0.0248 -0.07524,0.0415 -0.01591,0.0167 -0.06264,0.0208 -0.103828,0.009 -0.06927,-0.0197 -0.07298,-0.0167 -0.04939,0.0404 0.02572,0.0623 0.138249,0.19583 0.213336,0.25324 0.03362,0.0257 0.03491,0.0359 0.0075,0.0593 -0.03862,0.0329 -0.02197,0.0464 0.194708,0.15753 0.165338,0.0848 0.177992,0.13581 0.02992,0.12056 -0.05924,-0.006 -0.107704,-5.3e-4 -0.107704,0.0124 0,0.0129 0.01077,0.0235 0.02393,0.0235 0.01316,0 0.02393,0.014 0.02393,0.031 0,0.0171 -0.02629,0.031 -0.05842,0.031 -0.03213,0 -0.06562,0.0151 -0.07441,0.0335 -0.0093,0.0194 -0.04256,0.0249 -0.0792,0.013 l -0.06321,-0.0205 0.05984,0.0841 c 0.03291,0.0463 0.11192,0.1158 0.175578,0.15451 0.09473,0.0576 0.108534,0.0756 0.07604,0.0992 -0.03194,0.0232 -0.01243,0.0442 0.09967,0.10747 0.07665,0.0433 0.158902,0.0874 0.182774,0.0981 0.07586,0.0338 0.01988,0.0772 -0.09242,0.0717 -0.07001,-0.003 -0.115515,0.01 -0.128711,0.0374 -0.01301,0.0273 -0.04741,0.0377 -0.09482,0.0286 -0.07221,-0.0137 -0.07317,-0.0124 -0.03257,0.0458 0.05918,0.0848 0.228343,0.19012 0.43077,0.26809 0.09544,0.0368 0.173524,0.0796 0.173524,0.0951 0,0.0155 -0.0727,0.0325 -0.161557,0.0377 -0.159621,0.009 -0.160696,0.01 -0.08975,0.0539 l 0.0718,0.0445 -0.06794,0.0119 c -0.06364,0.0111 -0.06515,0.0146 -0.02393,0.0552 0.0391,0.0386 0.02723,0.043 -0.106426,0.0401 -0.08274,-0.002 -0.15631,0.004 -0.163496,0.0136 -0.02829,0.0367 0.04365,0.14449 0.16735,0.25086 0.148726,0.12787 0.524381,0.37362 0.613297,0.40121 0.03291,0.0102 0.08047,0.0381 0.105684,0.062 0.04295,0.0407 0.0403,0.0448 -0.04189,0.0648 -0.04825,0.0117 -0.08773,0.0331 -0.08773,0.0476 0,0.0643 -0.08814,0.0588 -0.209312,-0.0131 -0.162471,-0.0964 -0.169035,-0.0966 -0.08522,-0.003 0.08797,0.0981 0.05763,0.13039 -0.08649,0.0922 -0.09889,-0.0262 -0.114484,-0.0241 -0.103072,0.0145 0.01109,0.0374 -0.0072,0.0422 -0.104264,0.0275 -0.113414,-0.0173 -0.107783,-0.0117 0.154357,0.1528 0.152653,0.0958 0.371397,0.20336 0.498378,0.24508 0.124472,0.0409 0.237931,0.0837 0.252132,0.095 0.0369,0.0295 -0.049,0.10422 -0.119885,0.10422 -0.03737,0 -0.06188,0.0217 -0.07002,0.062 -0.01536,0.0761 -0.09481,0.0809 -0.260426,0.0158 -0.142142,-0.0559 -0.259098,-0.0618 -0.235324,-0.012 0.02231,0.0468 0.277149,0.19348 0.443799,0.2555 0.24694,0.0919 0.254722,0.2373 0.0098,0.18263 -0.09501,-0.0212 -0.127573,-0.0204 -0.109759,0.003 0.03887,0.0504 0.03011,0.0883 -0.01656,0.0717 -0.139735,-0.0496 -0.221393,-0.0527 -0.221393,-0.008 0,0.0884 -0.09217,0.0849 -0.27592,-0.0104 -0.100347,-0.0521 -0.187021,-0.0946 -0.192608,-0.0946 -0.03057,0 -0.0019,0.0853 0.05416,0.16107 0.05128,0.0693 0.05613,0.087 0.02393,0.087 -0.04721,0 -0.05203,0.0345 -0.01206,0.0863 0.04842,0.0627 0.0049,0.0746 -0.08849,0.024 -0.111084,-0.0601 -0.131303,-0.0604 -0.131303,-0.002 0,0.067 -0.05995,0.0575 -0.196191,-0.0312 -0.118759,-0.0773 -0.11944,-0.0773 -0.132388,-0.0132 -0.01,0.0495 -0.0259,0.0603 -0.06862,0.0464 -0.05444,-0.0177 -0.05575,-0.0127 -0.06256,0.23798 -0.0068,0.25144 -0.0081,0.25623 -0.07051,0.26559 -0.03496,0.005 -0.07206,-0.008 -0.08246,-0.0301 z"
       style="fill:#aa0000;stroke-width:0.0272407" />
    <path
       style="fill:#aa0000;stroke-width:0.264583"
       d="m 79.426696,153.83419 c 0.148884,-0.0744 0.536358,-0.36663 0.792506,-0.26417 0.143349,0.14335 0.16445,0.20158 0.352224,0.26417 0.01294,0.004 0.444278,0.0841 0.352227,0.17611 -0.129858,0.12986 -0.89222,0.58316 -1.056675,0.52834 -0.05871,-0.0293 -0.117408,-0.0587 -0.176114,-0.0881 0,-0.0293 0.02566,-0.0738 0,-0.0881 -0.252704,-0.1404 -0.53394,-0.22295 -0.792504,-0.35223 -0.02625,-0.0131 0.0587,0 0.08806,0 0.219321,0 0.0618,0.0131 0.44028,-0.17611 z"
       id="path1317" />
  </g>
</svg>
