<?xml version="1.0" encoding="UTF-8" standalone="no"?>
<svg
   xmlns:dc="http://purl.org/dc/elements/1.1/"
   xmlns:cc="http://creativecommons.org/ns#"
   xmlns:rdf="http://www.w3.org/1999/02/22-rdf-syntax-ns#"
   xmlns:svg="http://www.w3.org/2000/svg"
   xmlns="http://www.w3.org/2000/svg"
   xmlns:sodipodi="http://sodipodi.sourceforge.net/DTD/sodipodi-0.dtd"
   xmlns:inkscape="http://www.inkscape.org/namespaces/inkscape"
   width="400mm"
   height="200mm"
   version="1.1"
   viewBox="0 0 400 200"
   id="svg1987"
   sodipodi:docname="2.svg"
   inkscape:version="1.0.2 (e86c8708, 2021-01-15)">
  <sodipodi:namedview
     pagecolor="#ffffff"
     bordercolor="#666666"
     borderopacity="1"
     objecttolerance="10"
     gridtolerance="10"
     guidetolerance="10"
     inkscape:pageopacity="0"
     inkscape:pageshadow="2"
     inkscape:window-width="1440"
     inkscape:window-height="855"
     id="namedview1989"
     showgrid="false"
     inkscape:zoom="32.863237"
     inkscape:cx="542.52704"
     inkscape:cy="393.66065"
     inkscape:window-x="0"
     inkscape:window-y="23"
     inkscape:window-maximized="1"
     inkscape:current-layer="svg1987" />
  <defs
     id="defs1981">
    <linearGradient
       id="linearGradient2434"
       x1="-129.49"
       x2="1609.3"
       y1="635.55"
       y2="635.55"
       gradientTransform="matrix(0.26458,0,0,0.26458,-3.0238,-6.9233477)"
       gradientUnits="userSpaceOnUse">
      <stop
         stop-color="#ff8080"
         offset="0"
         id="stop1976" />
      <stop
         stop-color="#ff8080"
         stop-opacity="0"
         offset="1"
         id="stop1978" />
    </linearGradient>
    <clipPath
       clipPathUnits="userSpaceOnUse"
       id="clipPath2599">
      <g
         inkscape:label="Clip"
         id="use2601">
        <rect
           style="fill:#ffffff;fill-opacity:1;stroke-width:0.264583"
           id="rect2647"
           width="0.28983754"
           height="0.4106032"
           x="143.08313"
           y="106.19325" />
      </g>
    </clipPath>
    <clipPath
       clipPathUnits="userSpaceOnUse"
       id="clipPath2599-2">
      <g
         inkscape:label="Clip"
         id="use2601-2">
        <rect
           style="fill:#ffffff;fill-opacity:1;stroke-width:0.264583"
           id="rect2643"
           width="0.28983754"
           height="0.4106032"
           x="143.08313"
           y="106.19325" />
      </g>
    </clipPath>
  </defs>
  <metadata
     id="metadata1983">
    <rdf:RDF>
      <cc:Work
         rdf:about="">
        <dc:format>image/svg+xml</dc:format>
        <dc:type
           rdf:resource="http://purl.org/dc/dcmitype/StillImage" />
        <dc:title />
      </cc:Work>
    </rdf:RDF>
  </metadata>
  <path
     style="fill:#ff8080;fill-opacity:1;stroke-width:0.264583"
     d="m -37.594609,181.9094 c 9.282813,-0.7025 18.734916,-0.57517 27.286409,-4.85092 20.866371,-10.43318 -4.252536,0.34131 12.7336581,-9.09547 8.1167129,-4.50928 16.5310369,0.86476 22.4354949,-1.81909 1.437121,-0.65324 2.187207,-2.40997 3.638187,-3.03182 5.809996,-2.49 2.916711,0.4797 9.701834,-5.45728 1.421678,-1.24397 2.773278,-4.85092 5.457283,-4.85092 3.454966,0 12.900149,2.88417 15.765481,1.21273 0.349663,-0.20397 10.670762,-11.3834 11.520929,-12.1273 4.807894,-4.2069 10.629624,-5.9926 15.765484,-9.70183 3.63819,-2.62758 7.488618,-4.98386 10.914558,-7.88274 1.30926,-1.10783 2.13896,-2.80528 3.638191,-3.63819 8.46417,-4.70231 17.6062,-0.0108 26.07368,-4.24455 4.46626,-2.23313 10.80302,-9.71299 16.97821,-9.09547 7.49086,0.74908 18.1808,12.5315 21.82913,16.37184 3.85039,4.05304 8.35254,7.76489 10.91457,12.73366 14.96083,29.01496 14.8121,58.23343 -4.24456,86.10378 -12.85016,18.79337 -50.99638,52.09673 -72.15739,61.8492 -31.437351,14.48852 -37.705012,0.83997 -68.519212,-8.4891 -31.51878386,-9.54239 -25.2243255,-0.0401 -51.540997,-17.58458 -5.23779,-3.49186 -10.931994,-7.20727 -13.946388,-12.73366 -3.930813,-7.20649 -4.650253,-26.89819 -5.457282,-35.77551 -0.284322,-3.12756 -3.28378,-20.63025 -1.212729,-24.25459 0.723132,-1.26548 1.616972,-2.42546 2.425459,-3.63819 z"
     id="path2573" />
  <rect
     style="fill:#ff8080;fill-opacity:1;stroke-width:0.264583"
     id="rect2575"
     width="1.7493415"
     height="1.8810123"
     x="142.82526"
     y="105.97623" />
  <path
     id="rect2577"
     style="fill:#ff8080;fill-opacity:1;stroke-width:0.191176"
     d="m 143.65256,104.60704 v 0 l 1.61803,1.56978 -3.10367,0.0251 z"
     sodipodi:nodetypes="ccccc" />
  <rect
     style="fill:#ff8080;fill-opacity:1;stroke-width:0.264583"
     id="rect2580"
     width="0.2445316"
     height="0.5643037"
     x="142.95694"
     y="104.92287" />
  <path
     style="fill:#ff8080;fill-opacity:1;stroke-width:0.264583"
     d="m 142.93813,104.56547 c -0.0782,-0.14826 0.0443,-0.18137 -0.11287,-0.33858 -0.046,-0.046 -0.23884,-0.23141 -0.15048,-0.31977 0.0154,-0.0154 0.0786,-0.041 0.0941,-0.0564 0.0266,-0.0266 0.038,-0.0754 0.0752,-0.094 0.006,-0.003 0,0.0125 0,0.0188 0,0.0321 -0.01,0.11601 0.0188,0.15048 0.0997,0.11962 0.0383,0.0253 0.13167,0.0564 0.006,0.002 0,0.0125 0,0.0188 0,0.0314 0,0.0627 0,0.0941 0,0.0519 0.0435,0.4079 0.0188,0.43263 -0.0198,0.0198 -0.0502,0.0251 -0.0752,0.0376 z"
     id="path2582" />
  <path
     style="fill:#ff8080;fill-opacity:1;stroke-width:0.264583"
     d="m 142.82526,103.21114 c 0,-0.19107 0.0129,0.0618 -0.0564,-0.16929 -0.009,-0.03 0.004,-0.0629 0,-0.094 -0.0158,-0.12686 -0.15931,-0.11514 -0.11286,-0.30096 0.0143,-0.0571 0.18417,-0.12859 0.20691,-0.0376 0.0223,0.0891 -0.034,0.11056 0.0564,0.1881 0.0213,0.0183 0.054,0.0194 0.0753,0.0376 0.0426,0.0365 0.094,0.13457 0.094,0.1881 0,0.0571 -0.0854,0.1185 -0.11286,0.15048 -0.077,0.0898 -0.0588,0.1598 -0.15048,0.0376 z"
     id="path2584" />
  <path
     id="path12"
     d="m 140.91803,107.80071 c -0.003,-0.007 -0.006,-0.0496 -0.004,-0.0942 0.003,-0.0788 0.001,-0.0807 -0.0149,-0.064 -0.022,0.0234 -0.0278,0.0217 -0.0278,-0.008 v -0.0253 l -0.0408,0.0303 c -0.0446,0.0332 -0.0774,0.0404 -0.0686,0.0151 0.019,-0.0553 0.0278,-0.0513 -0.0652,-0.0293 -0.0174,0.004 -0.0295,0.002 -0.0338,-0.006 -0.004,-0.01 -0.0134,-0.01 -0.0381,-4.2e-4 -0.0515,0.0199 -0.0543,0.007 -0.007,-0.0334 0.043,-0.0371 0.0586,-0.0617 0.0499,-0.0785 -0.003,-0.004 -0.0244,0.007 -0.0487,0.0264 -0.0478,0.0378 -0.0828,0.0465 -0.0737,0.0185 0.003,-0.012 0.001,-0.0148 -0.009,-0.01 -0.007,0.003 -0.024,0.009 -0.0362,0.0128 -0.0195,0.006 -0.0217,0.004 -0.0174,-0.0153 0.006,-0.0265 0.009,-0.0264 -0.0381,-0.002 -0.0399,0.0212 -0.0993,0.0281 -0.0899,0.01 0.003,-0.006 -0.004,-0.01 -0.0174,-0.01 -0.0312,0 -0.0198,-0.0181 0.0271,-0.0424 0.0405,-0.021 0.054,-0.0458 0.0156,-0.0287 -0.0289,0.0129 -0.0646,0.0128 -0.0646,-2.8e-4 0,-0.006 -0.0119,-0.01 -0.0256,-0.01 -0.0446,0 -0.0366,-0.017 0.0192,-0.0408 0.0996,-0.0424 0.31012,-0.17553 0.31012,-0.19621 0,-0.004 -0.007,-0.003 -0.0168,0.003 -0.0104,0.007 -0.0188,0.007 -0.0219,8.5e-4 -0.003,-0.006 -0.0192,-0.004 -0.0406,0.006 -0.0437,0.0181 -0.0421,0.0182 -0.0421,-0.002 0,-0.0117 -0.004,-0.0143 -0.0152,-0.009 -0.0502,0.0239 -0.0647,0.0249 -0.0691,0.006 -0.003,-0.0148 -0.009,-0.0184 -0.0241,-0.014 -0.0104,0.003 -0.0222,8.7e-4 -0.0254,-0.006 -0.003,-0.006 0.004,-0.0136 0.0186,-0.0174 0.0134,-0.004 0.0531,-0.0206 0.0884,-0.0375 0.0572,-0.0275 0.0625,-0.0323 0.0488,-0.0441 -0.0149,-0.0122 -0.0134,-0.0137 0.009,-0.02 0.0344,-0.01 0.14288,-0.0972 0.18281,-0.14659 l 0.0347,-0.043 -0.0326,0.0158 c -0.033,0.0159 -0.10195,0.019 -0.10195,0.004 0,-0.004 0.0156,-0.02 0.0347,-0.0348 0.0497,-0.0385 0.0451,-0.0579 -0.006,-0.0282 -0.0429,0.0246 -0.0765,0.0318 -0.0673,0.0143 0.003,-0.006 -0.006,-0.008 -0.0234,-0.004 -0.0271,0.004 -0.0277,0.004 -0.0119,-0.01 0.0198,-0.0187 0.009,-0.0205 -0.0292,-0.004 -0.0185,0.008 -0.031,0.008 -0.0366,0.001 -0.006,-0.007 0.0235,-0.0264 0.0853,-0.058 0.0988,-0.0505 0.15897,-0.0911 0.15897,-0.10753 0,-0.006 -0.0119,-0.007 -0.026,-0.004 -0.0372,0.009 -0.0323,-0.01 0.009,-0.0318 0.0187,-0.01 0.0448,-0.0313 0.058,-0.0474 l 0.024,-0.0293 -0.0298,-5e-5 -0.0298,-3e-5 0.026,-0.0251 0.026,-0.0251 -0.0265,0.0114 c -0.0356,0.0152 -0.0941,0.003 -0.0871,-0.0185 0.003,-0.0112 -3.4e-4,-0.0149 -0.0149,-0.0135 -0.0551,0.006 -0.0518,-0.015 0.004,-0.0251 0.0204,-0.004 0.0527,-0.0153 0.0717,-0.0259 l 0.0347,-0.0191 -0.0499,0.004 c -0.0275,0.002 -0.0499,-3e-5 -0.0499,-0.004 0,-0.006 0.0259,-0.0261 0.0576,-0.0478 0.0317,-0.0218 0.0735,-0.056 0.0929,-0.0762 l 0.0351,-0.0366 -0.0453,0.003 c -0.0342,0.003 -0.0452,-2.9e-4 -0.0452,-0.0111 0,-0.008 -0.009,-0.0157 -0.0195,-0.0178 -0.0159,-0.003 -0.0119,-0.008 0.0234,-0.0265 0.0479,-0.0256 0.10031,-0.0692 0.10031,-0.0837 0,-0.006 -0.009,-0.006 -0.0217,3.1e-4 -0.0219,0.01 -0.0997,0.003 -0.0997,-0.009 3e-5,-0.003 0.0167,-0.0144 0.0369,-0.0243 0.0204,-0.01 0.0466,-0.027 0.0586,-0.0379 l 0.0216,-0.0199 -0.0283,-2.3e-4 c -0.0156,-1.1e-4 -0.0283,-0.004 -0.0283,-0.01 0,-0.006 0.004,-0.01 0.0104,-0.01 0.0119,0 0.0763,-0.0507 0.0763,-0.0605 0,-0.004 -0.0134,-0.007 -0.0302,-0.007 -0.0307,0 -0.0519,-0.0136 -0.0333,-0.0214 0.006,-0.003 0.0271,-0.0188 0.0478,-0.0365 l 0.0374,-0.0322 -0.024,-0.006 -0.024,-0.006 0.0301,-0.028 c 0.0165,-0.0154 0.0299,-0.0359 0.0299,-0.0458 -1.9e-4,-0.0373 0.0253,-0.17 0.0296,-0.1554 0.004,0.0156 0.0149,0.0896 0.0177,0.12936 7.9e-4,0.0123 0.006,0.0281 0.0119,0.0352 0.006,0.007 0.0104,0.0181 0.0104,0.0247 0,0.007 0.009,0.0192 0.0195,0.028 0.0186,0.0153 0.0187,0.0161 0.003,0.0178 -0.009,8.6e-4 -0.0213,10e-4 -0.026,3.9e-4 -0.004,-8.7e-4 -0.001,0.006 0.009,0.0141 0.009,0.008 0.0119,0.0154 0.006,0.0154 -0.0205,0 -0.009,0.0198 0.0293,0.0525 0.0332,0.0278 0.0369,0.0345 0.0238,0.04 -0.009,0.004 -0.0186,0.006 -0.0222,0.002 -0.003,-0.003 -0.006,-3.3e-4 -0.006,0.006 0,0.006 0.0182,0.0208 0.0403,0.0351 l 0.0403,0.026 -0.0365,0.007 c -0.0214,0.004 -0.0351,0.0121 -0.0332,0.019 0.001,0.006 0.026,0.0277 0.054,0.0474 0.0381,0.0266 0.0467,0.0366 0.0342,0.0393 -0.009,0.002 -0.0216,0.008 -0.0272,0.0136 -0.006,0.006 -0.0228,0.007 -0.0376,0.003 -0.0252,-0.006 -0.0265,-0.006 -0.018,0.0133 0.009,0.0205 0.0502,0.0643 0.0774,0.0832 0.0119,0.008 0.0134,0.0118 0.003,0.0195 -0.0134,0.0111 -0.009,0.0152 0.0705,0.0518 0.06,0.0279 0.0646,0.0446 0.0104,0.0396 -0.0216,-0.002 -0.0391,-1.7e-4 -0.0391,0.004 0,0.004 0.003,0.008 0.009,0.008 0.004,0 0.009,0.006 0.009,0.01 0,0.006 -0.009,0.01 -0.0211,0.01 -0.0119,0 -0.0238,0.006 -0.0271,0.0111 -0.003,0.006 -0.0155,0.008 -0.0287,0.004 l -0.0228,-0.007 0.0216,0.0276 c 0.0119,0.0152 0.0405,0.0381 0.0637,0.0508 0.0344,0.0189 0.0393,0.0247 0.0277,0.0326 -0.0119,0.008 -0.004,0.0145 0.0362,0.0353 0.0278,0.0142 0.0576,0.0287 0.0662,0.0322 0.0275,0.0111 0.007,0.0254 -0.0335,0.0236 -0.0253,-10e-4 -0.0418,0.003 -0.0466,0.0123 -0.004,0.009 -0.0173,0.0124 -0.0344,0.009 -0.0262,-0.004 -0.0265,-0.004 -0.0119,0.0151 0.0214,0.0279 0.0828,0.0625 0.15622,0.0881 0.0345,0.0121 0.063,0.0261 0.063,0.0313 0,0.006 -0.0264,0.0111 -0.0586,0.0124 -0.0579,0.003 -0.0582,0.003 -0.0326,0.0178 l 0.026,0.0145 -0.0247,0.004 c -0.0231,0.004 -0.0237,0.004 -0.009,0.0182 0.0149,0.0126 0.009,0.0141 -0.0387,0.0132 -0.0301,-4.3e-4 -0.0567,9.9e-4 -0.0594,0.004 -0.0104,0.012 0.0158,0.0475 0.0606,0.0824 0.0539,0.0419 0.19017,0.12276 0.22241,0.13181 0.0119,0.003 0.0292,0.0125 0.0382,0.0204 0.0155,0.0134 0.0149,0.0147 -0.0152,0.0213 -0.0174,0.004 -0.0318,0.0111 -0.0318,0.0155 0,0.0211 -0.032,0.0193 -0.0759,-0.004 -0.0589,-0.0316 -0.0613,-0.0317 -0.0308,-8.6e-4 0.0319,0.0322 0.021,0.0428 -0.0314,0.0303 -0.0359,-0.009 -0.0415,-0.008 -0.0374,0.006 0.003,0.0123 -0.003,0.0139 -0.0378,0.009 -0.0411,-0.006 -0.0391,-0.004 0.056,0.0502 0.0554,0.0315 0.13469,0.0668 0.18076,0.0804 0.0451,0.0134 0.0862,0.0275 0.0914,0.0312 0.0134,0.01 -0.0177,0.0343 -0.0435,0.0343 -0.0134,0 -0.0225,0.007 -0.0253,0.0204 -0.006,0.025 -0.0344,0.0266 -0.0945,0.006 -0.0515,-0.0183 -0.0941,-0.0203 -0.0854,-0.004 0.009,0.0154 0.10046,0.0636 0.16095,0.084 0.0896,0.0302 0.0923,0.078 0.003,0.06 -0.0345,-0.007 -0.0463,-0.007 -0.0399,8.6e-4 0.0134,0.0165 0.0104,0.029 -0.006,0.0236 -0.0508,-0.0163 -0.0802,-0.0173 -0.0802,-0.003 0,0.029 -0.0335,0.0279 -0.10016,-0.003 -0.0363,-0.0171 -0.0679,-0.0311 -0.0698,-0.0311 -0.0104,0 -7.8e-4,0.028 0.0197,0.0529 0.0186,0.0227 0.0204,0.0286 0.009,0.0286 -0.0171,0 -0.0189,0.0113 -0.004,0.0284 0.0176,0.0206 10e-4,0.0245 -0.032,0.008 -0.0403,-0.0196 -0.0476,-0.0198 -0.0476,-4.2e-4 0,0.022 -0.0217,0.0189 -0.0711,-0.01 -0.043,-0.0254 -0.0433,-0.0254 -0.0479,-0.004 -0.003,0.0163 -0.009,0.0198 -0.0249,0.0152 -0.0198,-0.006 -0.0202,-0.004 -0.0228,0.0782 -0.003,0.0826 -0.003,0.0842 -0.0256,0.0873 -0.0134,0.002 -0.0262,-0.003 -0.0299,-0.01 z"
     style="fill:#ff8080;stroke-width:0.00940278" />
</svg>
